<svg xmlns="http://www.w3.org/2000/svg" viewBox="0 0 396.85 396.85"><path d="M4817.86,6066.26c-1.61-25.41,5.87-47,25.14-63.65a69.13,69.13,0,0,1,46.77-17.27c21.54.1,39.64,8.31,54,24.37s19.3,35.13,17.93,56.55c9.08,0,17.67-.12,26.26,0a35.52,35.52,0,0,1,34.69,32.49c.66,8.34,1,16.72,1.38,25.08q2.92,61.61,5.81,123.22c.93,20.1,2,40.2,2.69,60.31.77,21.54-15,37.91-36.6,37.93q-106.14.11-212.28,0c-21.55,0-37.5-16.45-36.58-37.94,1.82-42.58,3.95-85.15,5.94-127.72,1.1-23.73,2.14-47.45,3.3-71.17a88.93,88.93,0,0,1,1.5-14.88,35.4,35.4,0,0,1,33.83-27.32C4800.11,6066.15,4808.61,6066.26,4817.86,6066.26Zm72,255.08q52.89,0,105.78,0c8.18,0,13.09-5.08,12.89-13.18-.11-4.12-.28-8.24-.47-12.36q-2.86-60.69-5.74-121.36c-1.13-24-2.18-48-3.43-71.91-.45-8.63-5.26-12.8-13.86-12.76q-27.57.12-55.13.22-67.89.18-135.78.33c-8.26,0-12.88,4.14-13.4,12.36-.61,9.85-.93,19.72-1.39,29.59q-4.11,87.27-8.21,174.54c-.46,9.84,4.14,14.54,14.09,14.54Zm47.75-255.24c1.74-21.85-5-39.56-24.26-50.47-17.56-9.95-35.43-8.78-51.82,3-16.08,11.57-21.29,28.11-19.48,47.46Z" transform="translate(-4691.34 -5966.93)" fill="#8bc34a"/><path d="M4890,6187.12a71.85,71.85,0,0,1-70.27-54.91c-2-8.07,1.33-14.69,8.22-16.32,7.35-1.74,13.22,2.29,15.32,10.5,5,19.67,20.84,34.33,39.55,36.67,21,2.62,40-6.83,49.51-24.92a67.27,67.27,0,0,0,4.63-12.59c2.15-7.43,8.19-11.39,15.27-9.64,6.52,1.61,10.05,8.06,8.37,15.3A71.84,71.84,0,0,1,4890,6187.12Z" transform="translate(-4691.34 -5966.93)" fill="#8bc34a"/><rect width="396.85" height="396.85" fill="none"/></svg>